<svg width="80" height="32" viewBox="0 0 80 32" fill="none" xmlns="http://www.w3.org/2000/svg">
<path d="M14.1012 3.81809C13.9066 3.81881 13.715 3.7985 13.5459 3.75924C13.4218 3.73079 13.3129 3.69252 13.2255 3.64669C13.1381 3.60086 13.074 3.54838 13.0369 3.49231C12.9999 3.43625 12.9906 3.37773 13.0096 3.32019C13.0286 3.26264 13.0756 3.20722 13.1478 3.15717C14.5383 2.21023 18.7692 0 28.0011 0C32.0019 0 35.5108 0.428744 38.4253 1.27387C40.8242 1.96746 42.1686 2.75256 42.8091 3.13069C42.8903 3.17835 42.9473 3.23216 42.9768 3.28895C43.0063 3.34575 43.0077 3.40437 42.9808 3.46138C42.9539 3.51838 42.8993 3.57262 42.8203 3.62089C42.7413 3.66917 42.6394 3.7105 42.5206 3.74246C42.2778 3.80794 41.9821 3.83226 41.6961 3.81029C41.4102 3.78832 41.1564 3.72177 40.9887 3.62476C39.8296 2.94471 36.2955 0.875439 28.0011 0.875439C19.9051 0.875439 16.2448 2.77963 15.0526 3.59621C14.9568 3.6644 14.8181 3.72092 14.6508 3.75993C14.4836 3.79893 14.2939 3.81901 14.1012 3.81809Z" fill="#4760DA"/>
<path d="M0.225 26L7.6 15.85V18.3L0.575 8.5H4.25L9.475 15.75L7.975 15.775L13.15 8.5H16.675L9.7 18.125V15.775L17.125 26H13.375L7.875 18.3H9.35L3.925 26H0.225ZM19.098 26V8.5H21.773L32.748 21.975H31.423V8.5H34.648V26H31.973L20.998 12.525H22.323V26H19.098ZM39.3373 26V8.5H46.5373C48.0873 8.5 49.4123 8.75 50.5123 9.25C51.629 9.75 52.4873 10.4667 53.0873 11.4C53.6873 12.3333 53.9873 13.4417 53.9873 14.725C53.9873 16.0083 53.6873 17.1167 53.0873 18.05C52.4873 18.9667 51.629 19.675 50.5123 20.175C49.4123 20.6583 48.0873 20.9 46.5373 20.9H41.1373L42.5873 19.425V26H39.3373ZM50.7873 26L46.3623 19.65H49.8373L54.2873 26H50.7873ZM42.5873 19.775L41.1373 18.225H46.3873C47.8206 18.225 48.8956 17.9167 49.6123 17.3C50.3456 16.6833 50.7123 15.825 50.7123 14.725C50.7123 13.6083 50.3456 12.75 49.6123 12.15C48.8956 11.55 47.8206 11.25 46.3873 11.25H41.1373L42.5873 9.65V19.775Z" fill="#A3AED3"/>
<path d="M56.94 26V19H60.22C61.06 19 61.7 19.1667 62.14 19.5C62.58 19.8267 62.8 20.2667 62.8 20.82C62.8 21.1933 62.7133 21.5133 62.54 21.78C62.3667 22.04 62.1333 22.2433 61.84 22.39C61.5533 22.53 61.24 22.6 60.9 22.6L61.08 22.24C61.4733 22.24 61.8267 22.3133 62.14 22.46C62.4533 22.6 62.7 22.8067 62.88 23.08C63.0667 23.3533 63.16 23.6933 63.16 24.1C63.16 24.7 62.93 25.1667 62.47 25.5C62.01 25.8333 61.3267 26 60.42 26H56.94ZM58.24 24.98H60.34C60.8267 24.98 61.2 24.9 61.46 24.74C61.72 24.58 61.85 24.3233 61.85 23.97C61.85 23.6233 61.72 23.37 61.46 23.21C61.2 23.0433 60.8267 22.96 60.34 22.96H58.14V21.95H60.08C60.5333 21.95 60.88 21.87 61.12 21.71C61.3667 21.55 61.49 21.31 61.49 20.99C61.49 20.6633 61.3667 20.42 61.12 20.26C60.88 20.1 60.5333 20.02 60.08 20.02H58.24V24.98ZM66.8274 26.07C66.2808 26.07 65.7941 25.9533 65.3674 25.72C64.9408 25.48 64.6041 25.1533 64.3574 24.74C64.1108 24.3267 63.9874 23.8567 63.9874 23.33C63.9874 22.7967 64.1108 22.3267 64.3574 21.92C64.6041 21.5067 64.9408 21.1833 65.3674 20.95C65.7941 20.7167 66.2808 20.6 66.8274 20.6C67.3808 20.6 67.8708 20.7167 68.2974 20.95C68.7308 21.1833 69.0674 21.5033 69.3074 21.91C69.5541 22.3167 69.6774 22.79 69.6774 23.33C69.6774 23.8567 69.5541 24.3267 69.3074 24.74C69.0674 25.1533 68.7308 25.48 68.2974 25.72C67.8708 25.9533 67.3808 26.07 66.8274 26.07ZM66.8274 25C67.1341 25 67.4074 24.9333 67.6474 24.8C67.8874 24.6667 68.0741 24.4733 68.2074 24.22C68.3474 23.9667 68.4174 23.67 68.4174 23.33C68.4174 22.9833 68.3474 22.6867 68.2074 22.44C68.0741 22.1867 67.8874 21.9933 67.6474 21.86C67.4074 21.7267 67.1374 21.66 66.8374 21.66C66.5308 21.66 66.2574 21.7267 66.0174 21.86C65.7841 21.9933 65.5974 22.1867 65.4574 22.44C65.3174 22.6867 65.2474 22.9833 65.2474 23.33C65.2474 23.67 65.3174 23.9667 65.4574 24.22C65.5974 24.4733 65.7841 24.6667 66.0174 24.8C66.2574 24.9333 66.5274 25 66.8274 25ZM72.8827 26.07C72.2961 26.07 71.8427 25.92 71.5227 25.62C71.2027 25.3133 71.0427 24.8633 71.0427 24.27V19.48H72.2927V24.24C72.2927 24.4933 72.3561 24.69 72.4827 24.83C72.6161 24.97 72.7994 25.04 73.0327 25.04C73.3127 25.04 73.5461 24.9667 73.7327 24.82L74.0827 25.71C73.9361 25.83 73.7561 25.92 73.5427 25.98C73.3294 26.04 73.1094 26.07 72.8827 26.07ZM70.1627 21.7V20.7H73.7227V21.7H70.1627ZM76.761 26.07C76.3143 26.07 75.8843 26.0133 75.471 25.9C75.0643 25.78 74.741 25.6367 74.501 25.47L74.981 24.52C75.221 24.6733 75.5077 24.8 75.841 24.9C76.1743 25 76.5077 25.05 76.841 25.05C77.2343 25.05 77.5177 24.9967 77.691 24.89C77.871 24.7833 77.961 24.64 77.961 24.46C77.961 24.3133 77.901 24.2033 77.781 24.13C77.661 24.05 77.5043 23.99 77.311 23.95C77.1177 23.91 76.901 23.8733 76.661 23.84C76.4277 23.8067 76.191 23.7633 75.951 23.71C75.7177 23.65 75.5043 23.5667 75.311 23.46C75.1177 23.3467 74.961 23.1967 74.841 23.01C74.721 22.8233 74.661 22.5767 74.661 22.27C74.661 21.93 74.7577 21.6367 74.951 21.39C75.1443 21.1367 75.4143 20.9433 75.761 20.81C76.1143 20.67 76.531 20.6 77.011 20.6C77.371 20.6 77.7343 20.64 78.101 20.72C78.4677 20.8 78.771 20.9133 79.011 21.06L78.531 22.01C78.2777 21.8567 78.021 21.7533 77.761 21.7C77.5077 21.64 77.2543 21.61 77.001 21.61C76.621 21.61 76.3377 21.6667 76.151 21.78C75.971 21.8933 75.881 22.0367 75.881 22.21C75.881 22.37 75.941 22.49 76.061 22.57C76.181 22.65 76.3377 22.7133 76.531 22.76C76.7243 22.8067 76.9377 22.8467 77.171 22.88C77.411 22.9067 77.6477 22.95 77.881 23.01C78.1143 23.07 78.3277 23.1533 78.521 23.26C78.721 23.36 78.881 23.5033 79.001 23.69C79.121 23.8767 79.181 24.12 79.181 24.42C79.181 24.7533 79.081 25.0433 78.881 25.29C78.6877 25.5367 78.411 25.73 78.051 25.87C77.691 26.0033 77.261 26.07 76.761 26.07Z" fill="#A3AED3"/>
</svg>
